<svg width="74" height="57" viewBox="0 0 74 57" fill="none" xmlns="http://www.w3.org/2000/svg">
<g filter="url(#filter0_ddi_97001_43)">
<mask id="path-1-inside-1_97001_43" fill="white">
<path d="M14.1647 35V7.12H19.3247V18.76H28.5647V7.12H33.7247V35H28.5647V23.16H19.3247V35H14.1647ZM49.6991 35.72C47.3391 35.72 45.2857 35.1333 43.5391 33.96C41.7924 32.7867 40.4324 31.0867 39.4591 28.86C38.4991 26.6333 38.0191 23.9467 38.0191 20.8C38.0191 18.04 38.5457 15.6 39.5991 13.48C40.6524 11.3467 42.1057 9.67333 43.9591 8.46C45.8257 7.24667 47.9657 6.64 50.3791 6.64C52.1391 6.64 53.5457 6.78 54.5991 7.06C55.6657 7.32666 56.4924 7.65333 57.0791 8.04C57.6791 8.42667 58.1524 8.78667 58.4991 9.12L56.2991 13.56C56.0991 13.2933 55.7857 12.9867 55.3591 12.64C54.9324 12.2933 54.3257 11.9933 53.5391 11.74C52.7524 11.4867 51.7257 11.36 50.4591 11.36C49.1124 11.36 47.9057 11.7533 46.8391 12.54C45.7724 13.3267 44.9257 14.42 44.2991 15.82C43.6857 17.22 43.3791 18.84 43.3791 20.68C43.3791 24.0133 43.9657 26.6067 45.1391 28.46C46.3124 30.3133 47.8591 31.24 49.7791 31.24C51.8457 31.24 53.3057 30.7533 54.1591 29.78C55.0257 28.7933 55.4591 27.3733 55.4591 25.52C55.4591 25.2 55.4457 24.84 55.4191 24.44H49.6991V20.04H60.1391C60.2057 20.6533 60.2591 21.3133 60.2991 22.02C60.3524 22.7267 60.3791 23.36 60.3791 23.92C60.3791 25.4267 60.2324 26.8867 59.9391 28.3C59.6457 29.7133 59.1124 30.98 58.3391 32.1C57.5657 33.2067 56.4791 34.0867 55.0791 34.74C53.6924 35.3933 51.8991 35.72 49.6991 35.72Z"/>
</mask>
<path d="M14.1647 35V7.12H19.3247V18.76H28.5647V7.12H33.7247V35H28.5647V23.16H19.3247V35H14.1647ZM49.6991 35.72C47.3391 35.72 45.2857 35.1333 43.5391 33.96C41.7924 32.7867 40.4324 31.0867 39.4591 28.86C38.4991 26.6333 38.0191 23.9467 38.0191 20.8C38.0191 18.04 38.5457 15.6 39.5991 13.48C40.6524 11.3467 42.1057 9.67333 43.9591 8.46C45.8257 7.24667 47.9657 6.64 50.3791 6.64C52.1391 6.64 53.5457 6.78 54.5991 7.06C55.6657 7.32666 56.4924 7.65333 57.0791 8.04C57.6791 8.42667 58.1524 8.78667 58.4991 9.12L56.2991 13.56C56.0991 13.2933 55.7857 12.9867 55.3591 12.64C54.9324 12.2933 54.3257 11.9933 53.5391 11.74C52.7524 11.4867 51.7257 11.36 50.4591 11.36C49.1124 11.36 47.9057 11.7533 46.8391 12.54C45.7724 13.3267 44.9257 14.42 44.2991 15.82C43.6857 17.22 43.3791 18.84 43.3791 20.68C43.3791 24.0133 43.9657 26.6067 45.1391 28.46C46.3124 30.3133 47.8591 31.24 49.7791 31.24C51.8457 31.24 53.3057 30.7533 54.1591 29.78C55.0257 28.7933 55.4591 27.3733 55.4591 25.52C55.4591 25.2 55.4457 24.84 55.4191 24.44H49.6991V20.04H60.1391C60.2057 20.6533 60.2591 21.3133 60.2991 22.02C60.3524 22.7267 60.3791 23.36 60.3791 23.92C60.3791 25.4267 60.2324 26.8867 59.9391 28.3C59.6457 29.7133 59.1124 30.98 58.3391 32.1C57.5657 33.2067 56.4791 34.0867 55.0791 34.74C53.6924 35.3933 51.8991 35.72 49.6991 35.72Z" fill="black"/>
<path d="M14.1647 35H13.1647V36H14.1647V35ZM14.1647 7.12V6.12H13.1647V7.12H14.1647ZM19.3247 7.12H20.3247V6.12H19.3247V7.12ZM19.3247 18.76H18.3247V19.76H19.3247V18.76ZM28.5647 18.76V19.76H29.5647V18.76H28.5647ZM28.5647 7.12V6.12H27.5647V7.12H28.5647ZM33.7247 7.12H34.7247V6.12H33.7247V7.12ZM33.7247 35V36H34.7247V35H33.7247ZM28.5647 35H27.5647V36H28.5647V35ZM28.5647 23.16H29.5647V22.16H28.5647V23.16ZM19.3247 23.16V22.16H18.3247V23.16H19.3247ZM19.3247 35V36H20.3247V35H19.3247ZM14.1647 35H15.1647V7.12H14.1647H13.1647V35H14.1647ZM14.1647 7.12V8.12H19.3247V7.12V6.12H14.1647V7.12ZM19.3247 7.12H18.3247V18.76H19.3247H20.3247V7.12H19.3247ZM19.3247 18.76V19.76H28.5647V18.76V17.76H19.3247V18.76ZM28.5647 18.76H29.5647V7.12H28.5647H27.5647V18.76H28.5647ZM28.5647 7.12V8.12H33.7247V7.12V6.12H28.5647V7.12ZM33.7247 7.12H32.7247V35H33.7247H34.7247V7.12H33.7247ZM33.7247 35V34H28.5647V35V36H33.7247V35ZM28.5647 35H29.5647V23.16H28.5647H27.5647V35H28.5647ZM28.5647 23.16V22.16H19.3247V23.16V24.16H28.5647V23.16ZM19.3247 23.16H18.3247V35H19.3247H20.3247V23.16H19.3247ZM19.3247 35V34H14.1647V35V36H19.3247V35ZM43.5391 33.96L44.0967 33.1299L43.5391 33.96ZM39.4591 28.86L38.5408 29.2559L38.5428 29.2605L39.4591 28.86ZM39.5991 13.48L40.4946 13.925L40.4957 13.9227L39.5991 13.48ZM43.9591 8.46L43.4141 7.62155L43.4113 7.62335L43.9591 8.46ZM54.5991 7.06L54.3422 8.02644L54.3493 8.02834L54.3565 8.03014L54.5991 7.06ZM57.0791 8.04L56.5287 8.875L56.5374 8.88057L57.0791 8.04ZM58.4991 9.12L59.3951 9.56398L59.7205 8.9072L59.1922 8.39917L58.4991 9.12ZM56.2991 13.56L55.4991 14.16L56.4738 15.4597L57.1951 14.004L56.2991 13.56ZM53.5391 11.74L53.8456 10.7881L53.8456 10.7881L53.5391 11.74ZM46.8391 12.54L47.4326 13.3448L47.4326 13.3448L46.8391 12.54ZM44.2991 15.82L43.3863 15.4114L43.3831 15.4187L44.2991 15.82ZM45.1391 28.46L45.984 27.9251L45.984 27.9251L45.1391 28.46ZM54.1591 29.78L53.4077 29.1201L53.4071 29.1208L54.1591 29.78ZM55.4191 24.44L56.4168 24.3735L56.3546 23.44H55.4191V24.44ZM49.6991 24.44H48.6991V25.44H49.6991V24.44ZM49.6991 20.04V19.04H48.6991V20.04H49.6991ZM60.1391 20.04L61.1332 19.9319L61.0363 19.04H60.1391V20.04ZM60.2991 22.02L59.3007 22.0765L59.3012 22.0859L59.3019 22.0953L60.2991 22.02ZM59.9391 28.3L60.9182 28.5032L60.9182 28.5032L59.9391 28.3ZM58.3391 32.1L59.1588 32.6728L59.162 32.6682L58.3391 32.1ZM55.0791 34.74L54.6562 33.8338L54.6528 33.8354L55.0791 34.74ZM49.6991 35.72V34.72C47.5127 34.72 45.6589 34.1793 44.0967 33.1299L43.5391 33.96L42.9814 34.7901C44.9126 36.0874 47.1655 36.72 49.6991 36.72V35.72ZM43.5391 33.96L44.0967 33.1299C42.5313 32.0783 41.2845 30.5393 40.3753 28.4595L39.4591 28.86L38.5428 29.2605C39.5803 31.634 41.0535 33.495 42.9814 34.7901L43.5391 33.96ZM39.4591 28.86L40.3774 28.4641C39.4847 26.3937 39.0191 23.8493 39.0191 20.8H38.0191H37.0191C37.0191 24.0441 37.5134 26.873 38.5408 29.2559L39.4591 28.86ZM38.0191 20.8H39.0191C39.0191 18.1688 39.5205 15.8855 40.4946 13.925L39.5991 13.48L38.7035 13.035C37.5709 15.3145 37.0191 17.9112 37.0191 20.8H38.0191ZM39.5991 13.48L40.4957 13.9227C41.4761 11.9372 42.8139 10.4049 44.5068 9.29665L43.9591 8.46L43.4113 7.62335C41.3975 8.94172 39.8287 10.7561 38.7024 13.0373L39.5991 13.48ZM43.9591 8.46L44.5041 9.29844C46.1949 8.19942 48.1422 7.64 50.3791 7.64V6.64V5.64C47.7892 5.64 45.4566 6.29391 43.4141 7.62156L43.9591 8.46ZM50.3791 6.64V7.64C52.0985 7.64 53.4079 7.77808 54.3422 8.02644L54.5991 7.06L54.856 6.09356C53.6836 5.78192 52.1797 5.64 50.3791 5.64V6.64ZM54.5991 7.06L54.3565 8.03014C55.3684 8.2831 56.074 8.57525 56.5288 8.87496L57.0791 8.04L57.6294 7.20504C56.9108 6.73141 55.9631 6.37023 54.8416 6.08986L54.5991 7.06ZM57.0791 8.04L56.5374 8.88057C57.1065 9.24735 57.5222 9.56804 57.806 9.84083L58.4991 9.12L59.1922 8.39917C58.7825 8.0053 58.2516 7.60598 57.6208 7.19943L57.0791 8.04ZM58.4991 9.12L57.603 8.67602L55.403 13.116L56.2991 13.56L57.1951 14.004L59.3951 9.56398L58.4991 9.12ZM56.2991 13.56L57.0991 12.96C56.8287 12.5995 56.4445 12.2334 55.9897 11.8639L55.3591 12.64L54.7285 13.4161C55.127 13.7399 55.3694 13.9872 55.4991 14.16L56.2991 13.56ZM55.3591 12.64L55.9897 11.8639C55.4311 11.4101 54.6967 11.0622 53.8456 10.7881L53.5391 11.74L53.2325 12.6919C53.9548 12.9244 54.4337 13.1766 54.7285 13.4161L55.3591 12.64ZM53.5391 11.74L53.8456 10.7881C52.9219 10.4907 51.7806 10.36 50.4591 10.36V11.36V12.36C51.6709 12.36 52.5829 12.4826 53.2325 12.6919L53.5391 11.74ZM50.4591 11.36V10.36C48.9025 10.36 47.4871 10.8196 46.2455 11.7352L46.8391 12.54L47.4326 13.3448C48.3244 12.6871 49.3223 12.36 50.4591 12.36V11.36ZM46.8391 12.54L46.2455 11.7352C45.0196 12.6393 44.0723 13.8791 43.3863 15.4114L44.2991 15.82L45.2118 16.2286C45.7792 14.9609 46.5252 14.014 47.4326 13.3448L46.8391 12.54ZM44.2991 15.82L43.3831 15.4187C42.7042 16.9683 42.3791 18.7295 42.3791 20.68H43.3791H44.3791C44.3791 18.9505 44.6672 17.4717 45.215 16.2213L44.2991 15.82ZM43.3791 20.68H42.3791C42.3791 24.1113 42.9798 26.9188 44.2942 28.9949L45.1391 28.46L45.984 27.9251C44.9517 26.2946 44.3791 23.9153 44.3791 20.68H43.3791ZM45.1391 28.46L44.2942 28.9949C45.62 31.0892 47.4625 32.24 49.7791 32.24V31.24V30.24C48.2556 30.24 47.0047 29.5375 45.984 27.9251L45.1391 28.46ZM49.7791 31.24V32.24C51.9648 32.24 53.7793 31.7301 54.911 30.4392L54.1591 29.78L53.4071 29.1208C52.8322 29.7766 51.7267 30.24 49.7791 30.24V31.24ZM54.1591 29.78L54.9104 30.4399C55.9925 29.208 56.4591 27.517 56.4591 25.52H55.4591H54.4591C54.4591 27.2296 54.059 28.3787 53.4077 29.1201L54.1591 29.78ZM55.4591 25.52H56.4591C56.4591 25.1731 56.4446 24.7904 56.4168 24.3735L55.4191 24.44L54.4213 24.5065C54.4468 24.8896 54.4591 25.2269 54.4591 25.52H55.4591ZM55.4191 24.44V23.44H49.6991V24.44V25.44H55.4191V24.44ZM49.6991 24.44H50.6991V20.04H49.6991H48.6991V24.44H49.6991ZM49.6991 20.04V21.04H60.1391V20.04V19.04H49.6991V20.04ZM60.1391 20.04L59.1449 20.1481C59.2095 20.742 59.2615 21.3846 59.3007 22.0765L60.2991 22.02L61.2975 21.9635C61.2566 21.242 61.202 20.5647 61.1332 19.9319L60.1391 20.04ZM60.2991 22.02L59.3019 22.0953C59.3538 22.7831 59.3791 23.3907 59.3791 23.92H60.3791H61.3791C61.3791 23.3293 61.351 22.6702 61.2962 21.9447L60.2991 22.02ZM60.3791 23.92H59.3791C59.3791 25.3614 59.2388 26.7532 58.9599 28.0968L59.9391 28.3L60.9182 28.5032C61.226 27.0202 61.3791 25.492 61.3791 23.92H60.3791ZM59.9391 28.3L58.9599 28.0968C58.6921 29.3873 58.209 30.5284 57.5162 31.5318L58.3391 32.1L59.162 32.6682C60.0158 31.4316 60.5994 30.0394 60.9182 28.5032L59.9391 28.3ZM58.3391 32.1L57.5194 31.5272C56.8605 32.4701 55.9203 33.2439 54.6562 33.8338L55.0791 34.74L55.5019 35.6462C57.0379 34.9294 58.271 33.9433 59.1588 32.6728L58.3391 32.1ZM55.0791 34.74L54.6528 33.8354C53.4445 34.4047 51.8112 34.72 49.6991 34.72V35.72V36.72C51.987 36.72 53.9403 36.382 55.5053 35.6446L55.0791 34.74Z" fill="#1C1C21" mask="url(#path-1-inside-1_97001_43)"/>
</g>
<defs>
<filter id="filter0_ddi_97001_43" x="0.768674" y="0.898764" width="73.0066" height="55.8723" filterUnits="userSpaceOnUse" color-interpolation-filters="sRGB">
<feFlood flood-opacity="0" result="BackgroundImageFix"/>
<feColorMatrix in="SourceAlpha" type="matrix" values="0 0 0 0 0 0 0 0 0 0 0 0 0 0 0 0 0 0 127 0" result="hardAlpha"/>
<feMorphology radius="1" operator="dilate" in="SourceAlpha" result="effect1_dropShadow_97001_43"/>
<feOffset/>
<feComposite in2="hardAlpha" operator="out"/>
<feColorMatrix type="matrix" values="0 0 0 0 0.784314 0 0 0 0 0.858824 0 0 0 0 0.917647 0 0 0 1 0"/>
<feBlend mode="normal" in2="BackgroundImageFix" result="effect1_dropShadow_97001_43"/>
<feColorMatrix in="SourceAlpha" type="matrix" values="0 0 0 0 0 0 0 0 0 0 0 0 0 0 0 0 0 0 127 0" result="hardAlpha"/>
<feMorphology radius="5.74118" operator="erode" in="SourceAlpha" result="effect2_dropShadow_97001_43"/>
<feOffset dy="7.6549"/>
<feGaussianBlur stdDeviation="9.56865"/>
<feComposite in2="hardAlpha" operator="out"/>
<feColorMatrix type="matrix" values="0 0 0 0 0.788235 0 0 0 0 0.858824 0 0 0 0 0.917647 0 0 0 0.32 0"/>
<feBlend mode="normal" in2="effect1_dropShadow_97001_43" result="effect2_dropShadow_97001_43"/>
<feBlend mode="normal" in="SourceGraphic" in2="effect2_dropShadow_97001_43" result="shape"/>
<feColorMatrix in="SourceAlpha" type="matrix" values="0 0 0 0 0 0 0 0 0 0 0 0 0 0 0 0 0 0 127 0" result="hardAlpha"/>
<feOffset dy="3.82745"/>
<feGaussianBlur stdDeviation="4"/>
<feComposite in2="hardAlpha" operator="arithmetic" k2="-1" k3="1"/>
<feColorMatrix type="matrix" values="0 0 0 0 0.0470588 0 0 0 0 0.286275 0 0 0 0 0.52549 0 0 0 0.04 0"/>
<feBlend mode="normal" in2="shape" result="effect3_innerShadow_97001_43"/>
</filter>
</defs>
</svg>
